<?xml version="1.0" standalone="no"?>
<!DOCTYPE svg PUBLIC "-//W3C//DTD SVG 1.1//EN" "http://www.w3.org/Graphics/SVG/1.1/DTD/svg11.dtd" >
<svg xmlns="http://www.w3.org/2000/svg">
<metadata></metadata>
<defs>
<font id="dincondensedcregular" horiz-adv-x="839" >
<font-face units-per-em="2048" ascent="1620" descent="-428" />
<missing-glyph horiz-adv-x="477" />
<glyph unicode=" "  horiz-adv-x="477" />
<glyph unicode="&#x09;" horiz-adv-x="477" />
<glyph unicode="&#xa0;" horiz-adv-x="477" />
<glyph unicode="!" horiz-adv-x="430" d="M92 1434h246l-47 -1076h-164zM96 0v225h226v-225h-226z" />
<glyph unicode="&#x22;" horiz-adv-x="702" d="M92 1405h193l-56 -504h-82zM418 1405h192l-55 -504h-82z" />
<glyph unicode="#" horiz-adv-x="907" d="M51 428l2 133h131l43 318h-112v131h131l59 424h154l-60 -424h189l59 424h154l-60 -424h115l-2 -131h-131l-43 -318h113l-2 -133h-132l-59 -428h-154l60 428h-189l-59 -428h-154l60 428h-113zM338 561h188l43 318h-188z" />
<glyph unicode="$" horiz-adv-x="931" d="M92 367v47h205v-39q0 -87 37 -127q30 -33 84 -43v459l-80 26q-70 24 -118 59t-79 101q-15 33 -22.5 73t-8.5 63.5t-1 72.5v20q0 166 110 267q83 75 199 86v165h98v-165q127 -5 213 -95q96 -101 96 -274v-47h-204v39q0 88 -37 131q-29 34 -68 41v-393l66 -23 q45 -16 69.5 -26t61 -36t63.5 -61q39 -53 51.5 -111t12.5 -137v-28q0 -384 -324 -410v-166h-98v166q-76 5 -145.5 38t-110.5 85q-70 90 -70 242zM313 1049q0 -84 35 -129q23 -31 70 -52v359q-51 -14 -76 -56q-29 -42 -29 -122zM516 205q53 11 84 47q35 41 35 141v33 q0 104 -35 147q-24 34 -84 56v-424z" />
<glyph unicode="%" horiz-adv-x="1282" d="M92 903v314q0 106 62 163q59 54 155 54q97 0 156 -54q61 -56 61 -163v-314q0 -108 -61 -164q-58 -53 -156 -53q-97 0 -155 53q-62 57 -62 164zM252 901q0 -33 12 -47q18 -18 45 -18t45 18q13 15 13 47v318q0 32 -13 47q-18 18 -45 18t-45 -18q-12 -14 -12 -47v-318z M264 0l590 1434h156l-590 -1434h-156zM756 217v313q0 108 61 164q59 54 156 54q96 0 155 -54q62 -57 62 -164v-313q0 -107 -62 -164q-58 -53 -155 -53q-98 0 -156 53q-61 56 -61 164zM915 215q0 -32 13 -47q18 -18 45 -18t45 18q12 14 12 47v317q0 34 -12 48q-18 18 -45 18 t-45 -18q-13 -15 -13 -48v-317z" />
<glyph unicode="&#x26;" horiz-adv-x="1003" d="M41 334q0 159 72 266q27 40 74.5 87.5t93.5 82.5q-47 67 -80 127q-68 121 -68 254q0 138 84 219q84 84 236 84q126 0 211 -57q110 -75 110 -223q0 -126 -86 -244q-53 -73 -166 -168l232 -367q25 33 43 88q21 68 26 97l170 -48q-13 -63 -49 -155q-31 -76 -84 -135 l154 -242h-219l-70 111q-54 -58 -98 -82q-88 -49 -219 -49q-96 0 -162.5 27.5t-118.5 88.5q-86 100 -86 238zM246 356q0 -71 35 -120q50 -72 153 -72q65 0 123 33q42 23 61 53l-231 371q-48 -37 -94 -99q-47 -67 -47 -166zM330 1153q0 -112 76 -211l30 -41q80 70 115 154 q27 59 27 108q0 62 -35 97q-32 32 -88 32t-88 -32q-37 -35 -37 -107z" />
<glyph unicode="'" horiz-adv-x="438" d="M123 1405h192l-55 -504h-82z" />
<glyph unicode="(" horiz-adv-x="526" d="M102 508q0 241 56 457.5t184 468.5h143q-83 -229 -125 -435q-53 -250 -53 -491q0 -242 53 -492q41 -203 125 -434h-143q-128 252 -184 468.5t-56 457.5z" />
<glyph unicode=")" horiz-adv-x="526" d="M41 -418q84 231 125 434q53 250 53 492q0 241 -53 491q-42 206 -125 435h143q128 -252 184 -468.5t56 -457.5t-56 -457.5t-184 -468.5h-143z" />
<glyph unicode="*" horiz-adv-x="804" d="M92 1012l182 102l-178 103l58 108l180 -102l-4 211h135l-4 -211l184 112l68 -121l-195 -100l195 -94l-68 -129l-188 117l8 -220h-137l6 220l-178 -113z" />
<glyph unicode="+" horiz-adv-x="1011" d="M102 514v164h322v321h164v-321h321v-164h-321v-321h-164v321h-322z" />
<glyph unicode="," horiz-adv-x="450" d="M102 -205v430h226v-225z" />
<glyph unicode="-" horiz-adv-x="643" d="M92 535v184h459v-184h-459z" />
<glyph unicode="." horiz-adv-x="450" d="M102 0v225h226v-225h-226z" />
<glyph unicode="/" horiz-adv-x="692" d="M-31 0l590 1434h164l-590 -1434h-164z" />
<glyph unicode="0" horiz-adv-x="856" d="M113 309v815q0 34 2.5 61.5t11.5 65t30 71.5t54 62q82 70 217 70q147 0 238 -94q35 -36 53 -80t21 -75.5t3 -80.5v-815q0 -80 -18.5 -142t-81.5 -116q-85 -71 -215 -71t-209 65q-63 51 -84.5 115t-21.5 149zM317 338q0 -79 25 -115q30 -43 86 -43q58 0 86 43 q25 38 25 115v758q0 80 -25 114q-28 43 -86 43q-57 0 -86 -43q-25 -34 -25 -114v-758z" />
<glyph unicode="1" horiz-adv-x="856" d="M154 1055v211l229 168h197v-1434h-205v1214z" />
<glyph unicode="2" horiz-adv-x="851" d="M111 0v188l362 668q37 77 45 107q17 66 17 122v31q0 65 -31 105q-27 32 -80 32q-63 0 -90 -49q-19 -35 -19 -117v-55h-204v84q0 162 88 254q82 84 229 84q159 0 238 -98q73 -89 73 -232v-75q0 -74 -18 -131q-6 -22 -13.5 -41t-11 -26.5t-14 -25.5t-12.5 -22l-324 -608 h393v-195h-628z" />
<glyph unicode="3" horiz-adv-x="856" d="M113 264v146h204v-95q0 -61 27 -98q29 -37 86 -37q46 0 77.5 28t31.5 95v213q0 69 -29 102q-13 15 -29.5 21.5t-26 7t-34.5 0.5h-49v182h47q57 0 88 31q33 33 33 94v183q0 53 -33 86q-26 30 -82 30q-48 0 -76 -36q-31 -38 -31 -105v-82h-204v125q0 145 100 229 q82 70 209 70q138 0 217 -65q44 -35 74 -95t30 -139v-207q0 -160 -125 -211q42 -17 69 -46.5t38.5 -69.5t14.5 -70t3 -72v-137q0 -103 -14.5 -163.5t-69.5 -115.5q-83 -83 -241 -83q-67 0 -121 15.5t-102 61.5q-82 78 -82 207z" />
<glyph unicode="4" horiz-adv-x="856" d="M74 221v172l305 1041h201l-299 -1026h198v405h205v-407h98v-185h-98v-221h-205v221h-405z" />
<glyph unicode="5" horiz-adv-x="856" d="M117 283v63h205v-39q0 -60 20 -88q27 -39 84 -39q54 0 82 35q27 33 27 92v311q0 62 -25 91q-23 30 -72 30q-50 0 -80 -32q-16 -16 -32 -52h-189v779h602v-185h-397v-377q30 27 66 41q49 19 96 19q51 0 98 -20t78 -54q59 -66 59 -176v-387q0 -143 -77 -225 q-82 -90 -230 -90q-134 0 -221 77q-94 85 -94 226z" />
<glyph unicode="6" horiz-adv-x="856" d="M117 299v209q0 32 3.5 62.5t7.5 51.5t13 49.5t14 41.5t18 44t17 42l256 635h220l-254 -621q32 25 108 25q95 0 158 -74q61 -76 61 -189v-280q0 -152 -82 -234q-81 -81 -233 -81q-130 0 -215 79q-55 52 -73.5 109.5t-18.5 130.5zM322 301q0 -54 22 -84q31 -37 78 -37 q58 0 86 35q27 31 27 104v234q0 53 -23 82q-28 35 -74 35q-47 0 -80 -33q-36 -36 -36 -92v-244z" />
<glyph unicode="7" horiz-adv-x="860" d="M129 1075v359h614v-189l-327 -1245h-207l326 1243h-222v-168h-184z" />
<glyph unicode="8" horiz-adv-x="856" d="M112.5 521q-0.5 26 0 34.5t2 31t5.5 33t11 30.5t17 33t25.5 29t35.5 31q-56 55 -76 105.5t-20 114.5v161q0 16 1 31.5t7 50.5t17 64.5t34.5 65t56 60t84 41.5t115.5 17t115.5 -17t84 -41.5t56 -60t34.5 -65t17 -64.5t7 -50.5t1 -31.5v-161q0 -64 -20 -114.5t-76 -105.5 q20 -15 35.5 -31t25.5 -29t17 -33t11 -30.5t5.5 -33t2 -31t0 -34.5t-0.5 -32v-180q0 -16 -1 -31t-7 -50.5t-17 -65t-34.5 -65t-56 -60t-84 -41t-115.5 -16.5t-115.5 16.5t-84 41t-56 60t-34.5 65t-17 65t-7 50.5t-1 31v180q0 6 -0.5 32zM317 338q0 -158 111 -158t111 158 v184q0 158 -111 158t-111 -158v-184zM317 987q0 -158 111 -158t111 158v109q0 157 -111 157t-111 -157v-109z" />
<glyph unicode="9" horiz-adv-x="856" d="M117 858v281q0 151 82 233q40 40 102.5 61t130.5 21q129 0 215 -80q55 -52 73.5 -109t18.5 -130v-209q0 -32 -3.5 -62.5t-7.5 -51.5t-13 -49.5t-14 -41.5t-18 -44t-17 -42l-256 -635h-220l254 621q-32 -25 -108 -25q-95 0 -158 74q-61 76 -61 188zM322 881q0 -55 22 -82 q28 -35 74 -35q47 0 80 33q37 37 37 92v244q0 53 -23 84q-30 36 -78 36q-59 0 -86 -34q-26 -30 -26 -105v-233z" />
<glyph unicode=":" horiz-adv-x="440" d="M102 0v215h215v-215h-215zM102 791v215h215v-215h-215z" />
<glyph unicode=";" horiz-adv-x="440" d="M102 -205v420h215v-215zM102 791v215h215v-215h-215z" />
<glyph unicode="&#x3c;" horiz-adv-x="960" d="M51 559v103l807 374v-149l-594 -277l594 -276v-150z" />
<glyph unicode="=" horiz-adv-x="1011" d="M102 289v164h807v-164h-807zM102 575v164h807v-164h-807z" />
<glyph unicode="&#x3e;" horiz-adv-x="960" d="M102 184v150l594 276l-594 277v149l807 -374v-103z" />
<glyph unicode="?" horiz-adv-x="724" d="M41 1036v123q0 74 33.5 137t81.5 99q79 59 190 59q152 0 236 -78q35 -31 63.5 -85t28.5 -130v-112q0 -137 -47 -211l-144 -228q-5 -8 -9.5 -16.5t-7.5 -18t-5.5 -16t-3.5 -17t-2 -15.5t-1.5 -16t-0.5 -13.5v-14.5v-12v-117h-205v170q0 71 9 100.5t60 108.5l117 185 q35 54 35 135v86q0 55 -31 86q-28 28 -86 28q-56 0 -82 -34q-24 -31 -24 -84v-99h-205zM238 0v225h225v-225h-225z" />
<glyph unicode="@" horiz-adv-x="1366" d="M123 309v492q0 155 21.5 273.5t82.5 195.5q55 70 165.5 117t281.5 47q316 0 454 -146q66 -69 90.5 -167t24.5 -247v-448q0 -139 -35 -203q-23 -41 -70.5 -64.5t-107.5 -23.5q-77 0 -125 37q-62 47 -65 133q-4 -41 -20 -65.5t-48 -51.5q-36 -29 -64.5 -41t-76.5 -12 q-114 0 -174 72q-58 69 -58 221v283q0 189 74 258q50 47 131 47q59 0 115 -29q44 -23 78 -65v79h170v-643q0 -73 49 -73q32 0 44.5 31.5t12.5 107.5v450q0 222 -86 308q-45 45 -125.5 73.5t-179.5 28.5q-285 0 -356 -194q-33 -111 -33 -289v-496q0 -223 80 -311 q90 -96 303 -96q73 0 143 12q61 11 148 41l39 -131q-98 -42 -201 -60q-71 -12 -162 -12q-297 0 -420 143q-35 40 -56.5 91t-30.5 113t-11 104.5t-2 109.5zM569 426q0 -68 25 -102q27 -39 78 -39q65 0 92 49q22 41 22 162v215q0 82 -22 114q-29 41 -82 41q-48 0 -76 -32 q-37 -41 -37 -129v-279z" />
<glyph unicode="A" horiz-adv-x="878" d="M20 0l314 1434h180l313 -1434h-204l-68 307h-262l-68 -307h-205zM313 489h217l-110 545z" />
<glyph unicode="B" horiz-adv-x="923" d="M123 0v1434h276q171 0 271 -70q45 -32 74 -76t40 -95t14 -82.5t3 -76.5q0 -78 -12.5 -128.5t-49.5 -94.5q-32 -39 -77 -66q62 -28 98 -90q28 -49 34.5 -83.5t6.5 -96.5v-108q0 -207 -123 -299q-87 -68 -244 -68h-311zM328 184h92q92 0 139 64q37 50 37 145v68 q0 57 -11.5 93t-43.5 64q-45 37 -109 37h-104v-471zM328 840h98q89 0 131 53q39 45 39 123v88q0 56 -39 98q-47 47 -133 47h-96v-409z" />
<glyph unicode="C" horiz-adv-x="888" d="M113 346v744q0 87 21 156.5t83 123.5q45 41 109 62.5t125 21.5q67 0 134.5 -24.5t112.5 -67.5q41 -41 67 -104t26 -134v-98h-199v82q0 54 -27 94q-36 51 -106 51q-69 0 -107 -47q-35 -43 -35 -141v-707q0 -31 1 -47t7 -39.5t19 -40.5q36 -51 105 -51q77 0 114 49 q29 41 29 117v51h205v-59q0 -171 -86 -262q-88 -96 -269 -96q-166 0 -258 108q-26 30 -42 63t-21.5 73t-6.5 59.5t-1 62.5z" />
<glyph unicode="D" horiz-adv-x="921" d="M123 0v1434h276q57 0 98 -3.5t100 -24t101 -58.5q111 -102 111 -310v-632q0 -90 -18 -161t-74 -132q-104 -113 -289 -113h-305zM328 201h92q90 0 137 49q47 51 47 168v635q0 85 -39 133q-18 22 -42 33t-41 12.5t-50 1.5h-104v-1032z" />
<glyph unicode="E" horiz-adv-x="808" d="M123 0v1434h608v-195h-403v-422h356v-184h-356v-438h409v-195h-614z" />
<glyph unicode="F" horiz-adv-x="796" d="M123 0v1434h622v-195h-417v-430h366v-195h-366v-614h-205z" />
<glyph unicode="G" horiz-adv-x="944" d="M115 332v725q0 53 3 88.5t18.5 84t45.5 89.5q96 135 289 135q162 0 254 -92q104 -104 104 -281v-57h-204v72q0 75 -41 116t-111 41q-71 0 -115 -51q-18 -22 -27 -50.5t-10.5 -47.5t-1.5 -53v-672q0 -102 35 -148q41 -51 115 -51q33 0 66 16t53 42q37 47 37 168v192h-174 v184h378v-782h-102l-53 111q-37 -65 -99 -97q-61 -34 -159 -34q-145 0 -228 102q-73 91 -73 250z" />
<glyph unicode="H" horiz-adv-x="931" d="M123 0v1434h205v-617h276v617h205v-1434h-205v633h-276v-633h-205z" />
<glyph unicode="I" horiz-adv-x="450" d="M123 0v1434h205v-1434h-205z" />
<glyph unicode="J" horiz-adv-x="739" d="M-20 102l157 134q40 -56 115 -56q81 0 121 53q39 51 39 146v1055h204v-1028q0 -49 -2.5 -83t-11.5 -82.5t-31.5 -90.5t-58.5 -78q-55 -55 -119.5 -73.5t-142.5 -18.5q-168 0 -270 122z" />
<glyph unicode="K" horiz-adv-x="972" d="M123 0v1434h205v-691l325 691h215l-290 -588l344 -846h-224l-243 641l-127 -221v-420h-205z" />
<glyph unicode="L" horiz-adv-x="833" d="M123 0v1434h205v-1239h434v-195h-639z" />
<glyph unicode="M" horiz-adv-x="1214" d="M123 0v1434h205l282 -791h8l269 791h205v-1434h-205v897h-10l-215 -647h-109l-215 647h-10v-897h-205z" />
<glyph unicode="N" horiz-adv-x="997" d="M123 0v1434h205l342 -902v902h204v-1434h-204l-342 901v-901h-205z" />
<glyph unicode="O" horiz-adv-x="946" d="M115 377v680q0 101 20 172t86 133q98 92 252 92t252 -92q66 -62 86 -133t20 -172v-680q0 -101 -20 -172t-86 -133q-98 -92 -252 -92t-252 92q-66 62 -86 133t-20 172zM319 346q0 -82 43 -125q41 -41 111 -41t111 41q43 43 43 125v741q0 82 -43 125q-41 41 -111 41 t-111 -41q-43 -43 -43 -125v-741z" />
<glyph unicode="P" horiz-adv-x="880" d="M123 0v1434h305q57 0 96 -4t94 -26.5t97 -64.5q63 -65 83.5 -145.5t20.5 -181.5v-41q0 -190 -88 -291q-99 -113 -282 -113h-121v-567h-205zM328 752h110q89 0 137 53q7 8 12.5 15.5t9.5 16.5t7 15t5 17t3 15.5t1.5 17.5t0.5 16v17.5v16.5v95q0 28 -1 41.5t-5 40 t-16.5 46.5t-32.5 37q-22 18 -53 26.5t-48.5 9.5t-58.5 1h-71v-497z" />
<glyph unicode="Q" horiz-adv-x="987" d="M123 377v680q0 101 20 172t86 133q98 92 252 92t252 -92q46 -43 71 -97.5t30.5 -98.5t5.5 -109v-680q0 -70 -6 -109.5t-27 -83.5l129 -102l-105 -127l-126 100q-81 -75 -214 -75h-10q-156 3 -252 92q-66 62 -86 133t-20 172zM328 346q0 -82 43 -125q41 -41 110 -41 q32 0 56 8l-99 78l105 127l92 -74v768q0 82 -43 125q-41 41 -111 41q-69 0 -110 -41q-43 -43 -43 -125v-741z" />
<glyph unicode="R" horiz-adv-x="911" d="M123 0v1434h268h14q54 0 86.5 -2t84 -11.5t93.5 -34.5t74 -65q76 -92 76 -250v-108q0 -67 -21.5 -128.5t-54.5 -99.5q-43 -48 -108 -73l225 -662h-213l-198 618h-121v-618h-205zM328 803h116q77 0 127 47q28 27 35.5 54t7.5 75v102q0 84 -47 131q-7 7 -14 12t-15 9l-14 7 t-15.5 4.5t-14.5 2.5t-16 1.5t-14.5 0.5h-15.5h-14h-106v-446z" />
<glyph unicode="S" horiz-adv-x="901" d="M92 346v47h205v-39q0 -85 33 -127q38 -47 112 -47q88 0 129 51q33 42 33 142v53q0 102 -33 147q-29 40 -98 64l-149 53q-67 25 -114 60t-75 100q-31 71 -31 209v41q0 163 107 266q91 88 248 88q156 0 249 -97.5t93 -273.5v-47h-205v39q0 88 -35 131q-37 47 -108 47 q-62 0 -101 -39q-43 -45 -43 -145q0 -101 33 -149q24 -37 94 -64l125 -45q33 -13 49 -19.5t45.5 -22t51.5 -35.5t41 -46q38 -52 49.5 -109.5t11.5 -138.5v-49q0 -106 -26 -188t-72 -129q-41 -43 -111 -68.5t-156 -25.5q-102 0 -174.5 35t-111.5 89q-66 88 -66 242z" />
<glyph unicode="T" horiz-adv-x="794" d="M41 1239v195h713v-195h-254v-1239h-205v1239h-254z" />
<glyph unicode="U" horiz-adv-x="929" d="M123 377v1057h205v-1088q0 -76 35.5 -121t101.5 -45t101.5 45t35.5 121v1088h205v-1057q0 -91 -21 -162t-54.5 -114.5t-80 -71.5t-91.5 -38.5t-95 -10.5t-95 10.5t-91.5 38.5t-80 71.5t-54.5 114.5t-21 162z" />
<glyph unicode="V" horiz-adv-x="827" d="M20 1434h226l166 -992h8l172 992h215l-303 -1434h-180z" />
<glyph unicode="W" horiz-adv-x="1222" d="M31 1434h217l114 -893h9l164 893h153l164 -893h12l111 893h217l-225 -1434h-185l-164 926h-14l-164 -926h-184z" />
<glyph unicode="X" horiz-adv-x="894" d="M31 0l307 758l-275 676h218l163 -451l166 451h226l-283 -676l311 -758h-217l-203 518l-188 -518h-225z" />
<glyph unicode="Y" horiz-adv-x="847" d="M20 1434h226l178 -570h12l174 570h217l-301 -830v-604h-204v610z" />
<glyph unicode="Z" horiz-adv-x="829" d="M92 0v180l420 1069h-391v185h616v-158l-430 -1092h420v-184h-635z" />
<glyph unicode="[" horiz-adv-x="516" d="M123 -418v1852h373v-152h-189v-1548h187v-152h-371z" />
<glyph unicode="\" horiz-adv-x="692" d="M-31 1434h164l590 -1434h-164z" />
<glyph unicode="]" horiz-adv-x="606" d="M123 1282v152h373v-1852h-371v152h186v1548h-188z" />
<glyph unicode="^" horiz-adv-x="1208" d="M92 555l445 879h135l444 -879h-164l-348 694l-348 -694h-164z" />
<glyph unicode="_" horiz-adv-x="1095" d="M0 -291h1096v-127h-1096v127z" />
<glyph unicode="`" horiz-adv-x="493" d="M41 1434h219l90 -250h-117z" />
<glyph unicode="a" horiz-adv-x="829" d="M92 270q0 178 64 254q75 88 241 88q54 0 117 -6v107q0 57 -27 86q-28 32 -81 32q-51 0 -82 -36q-24 -28 -27 -66h-195v5q0 62 22 118q24 58 62 96q39 39 99.5 61.5t130.5 22.5q134 0 219 -82q84 -84 84 -239v-711h-205v100h-4q-25 -42 -70 -77q-49 -39 -118 -39 q-98 0 -156 53q-74 69 -74 233zM297 299q0 -50 20 -84q28 -47 82 -47q49 0 82 33.5t33 97.5v143q-44 7 -72 7q-78 0 -114 -43q-31 -36 -31 -107z" />
<glyph unicode="b" d="M111 0v1434h204v-500q27 35 68 59q63 39 135 39q96 0 152 -59q59 -61 59 -172v-529q0 -147 -47 -211q-11 -16 -28.5 -31t-56 -30.5t-85.5 -15.5q-75 0 -125 34q-45 30 -70 72h-2v-90h-204zM315 319q0 -67 33 -102q33 -33 78 -33q44 0 72 31q13 14 19 30.5t6.5 27 t0.5 34.5v412q0 54 -26 82q-27 30 -72 30q-46 0 -78 -32q-33 -35 -33 -103v-377z" />
<glyph unicode="c" horiz-adv-x="786" d="M102 342v350q0 50 5 89t27.5 89t62.5 86q84 76 211 76q153 0 235 -88q40 -41 61 -103.5t21 -125.5v-6h-205v4q0 47 -22 80q-27 38 -82 38q-51 0 -80 -34t-29 -99v-393q0 -54 25 -86q29 -35 84 -35q54 0 82 35q22 30 22 82v2h205v-18q0 -144 -102 -232q-84 -69 -205 -69 q-70 0 -132.5 23t-103.5 65q-24 24 -40 53t-23.5 51.5t-11.5 58t-4.5 52.5t-0.5 55z" />
<glyph unicode="d" d="M111 272v529q0 111 59 172q56 59 152 59q72 0 135 -39q39 -23 67 -59v500h205v-1434h-205v90h-2q-25 -43 -69 -72q-50 -34 -125 -34q-67 0 -109 25t-61 52q-47 64 -47 211zM315 307q0 -23 1 -34.5t7 -27.5t19 -30q28 -31 72 -31q45 0 78 33q32 34 32 102v377 q0 69 -32 103q-32 32 -78 32q-45 0 -72 -30q-27 -29 -27 -82v-412z" />
<glyph unicode="e" horiz-adv-x="813" d="M102 328v389q0 159 101 246q79 69 203 69q128 0 212 -74q103 -89 103 -260v-266h-414v-131q0 -61 27 -88q26 -29 78 -29q54 0 82 43q18 30 18 70h205v-8q0 -165 -115 -248q-79 -57 -190 -57q-70 0 -133 26.5t-103 71.5q-74 82 -74 246zM307 590h209v133q0 51 -29 80 q-28 28 -75 28q-53 0 -80 -34q-25 -31 -25 -82v-125z" />
<glyph unicode="f" horiz-adv-x="548" d="M51 852v164h107v135q0 69 15 123t63 96q73 64 219 64h73v-181h-41q-22 0 -34.5 -1.5t-29.5 -9t-32 -23.5q-31 -36 -31 -99v-104h166v-164h-164v-852h-204v852h-107z" />
<glyph unicode="g" horiz-adv-x="831" d="M102 -123h205v-8q0 -38 27 -68q26 -28 76 -28q57 0 84 39q22 33 22 108v172q-28 -36 -67 -59q-63 -39 -136 -39q-95 0 -151 59q-60 62 -60 172v518q0 146 48 211q11 16 28 31t55.5 31t85.5 16q73 0 125 -35q46 -31 70 -71h2v90h205v-1110q0 -75 -15.5 -133.5 t-62.5 -108.5q-84 -92 -235 -92q-147 0 -228 94q-32 37 -53.5 94.5t-24.5 116.5zM307 307q0 -51 27 -82q26 -30 72 -30q45 0 77 32q33 35 33 103v366q0 68 -33 103q-32 32 -77 32q-46 0 -72 -30q-27 -31 -27 -92v-402z" />
<glyph unicode="h" d="M111 0v1434h204v-500q27 35 68 59q63 39 135 39q96 0 152 -59q59 -61 59 -172v-801h-205v719q0 54 -26 82q-27 30 -72 30q-46 0 -78 -32q-33 -35 -33 -103v-696h-204z" />
<glyph unicode="i" horiz-adv-x="425" d="M111 0v1016h204v-1016h-204zM111 1204v201h204v-201h-204z" />
<glyph unicode="j" horiz-adv-x="430" d="M-31 -217h37q55 0 82 31q27 29 27 90v1112h204v-1112v-25v-28t-1 -26.5t-2.5 -29.5l-4.5 -27t-8 -29t-11.5 -26.5t-16 -28.5t-21.5 -26q-24 -26 -51.5 -42.5t-59.5 -23.5t-53.5 -8.5t-54.5 -1.5h-66v201zM115 1204v201h204v-201h-204z" />
<glyph unicode="k" horiz-adv-x="825" d="M111 0v1434h204v-861h4l246 443h205l-244 -414l293 -602h-221l-184 438l-99 -153v-285h-204z" />
<glyph unicode="l" horiz-adv-x="471" d="M111 279v1155h204v-1145q0 -51 29 -78q23 -21 66 -21h20v-190h-59q-141 0 -209 86q-23 28 -35 65.5t-14 63t-2 64.5z" />
<glyph unicode="m" horiz-adv-x="1245" d="M111 0v1016h204v-92q20 28 64 63q58 45 139 45q61 0 111 -33q50 -34 73 -88q41 66 91 93q49 28 112 28q127 0 185 -82q45 -63 45 -176v-774h-205v719q0 50 -27 82q-26 30 -69 30q-48 0 -76 -32q-33 -35 -33 -103v-696h-205v719q0 52 -26 82q-27 30 -70 30q-46 0 -76 -32 q-33 -35 -33 -103v-696h-204z" />
<glyph unicode="n" d="M111 0v1016h204v-92q82 108 203 108q96 0 152 -59q59 -61 59 -172v-801h-205v719q0 54 -26 82q-27 30 -72 30q-46 0 -78 -32q-33 -35 -33 -103v-696h-204z" />
<glyph unicode="o" horiz-adv-x="823" d="M102 328v360q0 37 3 66.5t12 68.5t31 74.5t55 63.5q83 71 209 71t209 -71q44 -37 67.5 -90.5t28 -92t4.5 -90.5v-360q0 -52 -4.5 -90.5t-28 -92t-67.5 -90.5q-83 -71 -209 -71t-209 71q-33 28 -55 63.5t-31 74.5t-12 68.5t-3 66.5zM307 315q0 -68 31 -102q29 -29 74 -29 q44 0 73 29q31 34 31 102v385q0 69 -31 103q-28 28 -73 28q-46 0 -74 -28q-31 -34 -31 -103v-385z" />
<glyph unicode="p" d="M111 -418v1434h204v-90h2q24 40 70 71q52 35 125 35q67 0 109 -25.5t61 -52.5q47 -64 47 -211v-528q0 -111 -59 -172q-56 -59 -152 -59q-72 0 -135 39q-41 24 -68 59v-500h-204zM315 319q0 -67 33 -102q33 -33 78 -33q44 0 72 31q26 28 26 82v412q0 24 -0.5 34.5t-6.5 27 t-19 30.5q-27 30 -72 30q-46 0 -78 -32q-33 -35 -33 -103v-377z" />
<glyph unicode="q" d="M111 215v528q0 147 47 211q11 16 28 31t56 31t86 16q73 0 125 -35q45 -30 69 -71h2v90h205v-1434h-205v500q-28 -36 -67 -59q-63 -39 -135 -39q-96 0 -152 59q-59 61 -59 172zM315 297q0 -53 27 -82q28 -31 72 -31q45 0 78 33q32 34 32 102v377q0 69 -32 103 q-32 32 -78 32q-45 0 -72 -30q-18 -20 -22.5 -39.5t-4.5 -52.5v-412z" />
<glyph unicode="r" horiz-adv-x="608" d="M111 0v1016h204v-109l4 -2q103 127 269 127v-219q-25 6 -54.5 4t-60 -7t-59 -23t-50.5 -42.5t-35.5 -66.5t-13.5 -96v-582h-204z" />
<glyph unicode="s" horiz-adv-x="759" d="M61 285h205q0 -48 27 -78q30 -33 84 -33q52 0 80 35q26 28 26 82q0 44 -21 73.5t-81 55.5l-121 51q-84 35 -127 86q-55 65 -55 172q0 141 76 221q82 82 219 82q159 0 237 -82q37 -37 57.5 -93t20.5 -116h-201q-3 47 -30 74t-74 27q-41 0 -70.5 -26.5t-29.5 -76.5 q0 -36 20 -65q22 -31 80 -53l123 -52q78 -31 131 -98q51 -65 51 -186q0 -119 -65 -199q-83 -102 -248 -102q-156 0 -238 90q-37 40 -56.5 96.5t-19.5 114.5z" />
<glyph unicode="t" horiz-adv-x="522" d="M31 852v164h104v309h205v-309h131v-164h-131v-557q0 -61 29 -86q24 -19 75 -19h27v-190h-55q-42 0 -71.5 2.5t-75 20t-74.5 49.5q-60 64 -60 204v576h-104z" />
<glyph unicode="u" d="M111 215v801h204v-719q0 -59 25 -86q27 -27 66 -27q53 0 86 37q32 34 32 98v697h205v-1016h-205v102q-29 -44 -71 -75q-61 -43 -142 -43q-105 0 -159 75q-41 56 -41 156z" />
<glyph unicode="v" horiz-adv-x="731" d="M16 1016h215l138 -645h10l137 645h205l-270 -1016h-164z" />
<glyph unicode="w" horiz-adv-x="1116" d="M16 1016h209l131 -643l121 643h170l125 -643l127 643h205l-242 -1016h-174l-123 623h-10l-123 -623h-174z" />
<glyph unicode="x" horiz-adv-x="733" d="M14 0l250 518l-237 498h215l127 -289l127 289h215l-242 -498l254 -518h-215l-139 311l-140 -311h-215z" />
<glyph unicode="y" horiz-adv-x="761" d="M20 1016h222l166 -631h8l127 631h205l-279 -1153q0 -2 -4.5 -20.5t-6 -24t-6.5 -24t-8 -27l-9 -25.5t-12 -27.5t-13.5 -24t-16 -24t-18.5 -20.5q-66 -64 -205 -64h-53l-4 191h39q64 0 96 43q19 24 37 98l32 133z" />
<glyph unicode="z" horiz-adv-x="694" d="M51 0v168l363 674h-336v174h565v-148l-375 -694h375v-174h-592z" />
<glyph unicode="{" horiz-adv-x="544" d="M20 416v184q59 -1 99.5 27t56.5 71q19 46 19 140v249q0 31 1 49t7 58.5t23 77t44 67.5q81 95 222 95h32v-164h-20q-57 0 -88 -35q-37 -39 -37 -133v-266q0 -162 -49 -238q-42 -68 -127 -90q85 -22 127 -90q49 -76 49 -238v-266q0 -168 125 -168h20v-164h-32 q-61 0 -122 25.5t-100 68.5q-75 84 -75 252v250q0 93 -19 139q-16 44 -56.5 72t-99.5 27z" />
<glyph unicode="|" horiz-adv-x="389" d="M123 -418v1872h143v-1872h-143z" />
<glyph unicode="}" horiz-adv-x="544" d="M20 -254h21q125 0 125 168v266q0 162 49 238q42 68 127 90q-85 22 -127 90q-49 76 -49 238v266q0 94 -37 133q-31 35 -88 35h-21v164h33q140 0 221 -95q76 -86 76 -252v-249q0 -94 19 -140q16 -44 56 -71.5t99 -26.5v-184q-59 1 -99 -27t-56 -72q-19 -46 -19 -139v-250 q0 -167 -76 -252q-39 -44 -99.5 -69t-121.5 -25h-33v164z" />
<glyph unicode="~" horiz-adv-x="905" d="M111 500v6q0 95 39 156q52 81 159 81q46 0 127 -26l41 -15q66 -24 92 -24q42 0 64 27q18 25 18 61h144v-6q0 -95 -39 -156q-53 -82 -160 -82q-43 0 -127 27l-41 14q-69 25 -92 25q-42 0 -64 -27q-18 -25 -18 -61h-143z" />
<glyph unicode="&#xa4;" horiz-adv-x="1212" d="M104 332l152 151q-61 98 -61 217q0 120 61 218l-152 149l129 131l152 -151q88 65 221 65t221 -65l152 151l129 -131l-152 -149q62 -78 62 -218q0 -63 -12 -111.5t-22.5 -66.5t-27.5 -39l152 -151l-129 -129l-152 151q-94 -65 -221 -65t-221 65l-152 -151zM354 700 q0 -105 74 -178t178 -73t178 73t74 178q0 103 -74 177.5t-178 74.5t-178 -74.5t-74 -177.5z" />
<glyph unicode="&#xa6;" horiz-adv-x="389" d="M123 334h143v-752h-143v752zM123 702v752h143v-752h-143z" />
<glyph unicode="&#xa7;" horiz-adv-x="831" d="M72 739q0 88 55 154q25 31 80 68q-47 42 -68.5 90.5t-21.5 117.5q0 137 106 211q78 54 197 54q141 0 229 -88q82 -82 82 -209v-27h-194v18q0 35 -23 66q-27 39 -92 39q-43 0 -66 -19q-34 -24 -34 -69q0 -19 7.5 -35.5t16 -28t26.5 -23.5t28.5 -18t31.5 -16.5l27 -13.5 l84 -43q41 -21 65.5 -36t57 -43t53.5 -61q41 -62 41 -153q0 -77 -45 -142q-35 -47 -90 -79q49 -49 69.5 -97t20.5 -112q0 -135 -107 -211q-77 -53 -196 -53q-142 0 -230 88q-82 82 -82 208v27h195v-18q0 -37 22 -66q27 -39 93 -39q42 0 65 19q35 25 35 69q0 19 -7.5 35.5 t-16 28t-26.5 23.5t-28.5 18t-31.5 16.5l-27 13.5l-84 43q-41 21 -65.5 36t-57 43t-53.5 61q-41 64 -41 153zM276 745q0 -39 25 -71q21 -28 86 -62l96 -49q30 20 49 45q23 36 23 66q0 42 -25 74q-19 26 -86 61l-100 51q-36 -27 -53 -59q-15 -27 -15 -56z" />
<glyph unicode="&#xa8;" horiz-adv-x="737" d="M111 1204v195h194v-195h-194zM432 1204v195h195v-195h-195z" />
<glyph unicode="&#xa9;" horiz-adv-x="1396" d="M92 848q0 123 48 235t129.5 193.5t193.5 129.5t235 48t235.5 -48t194 -129.5t129.5 -193.5t48 -235t-48 -235t-129.5 -193.5t-194 -129.5t-235.5 -48t-235 48t-193.5 129.5t-129.5 193.5t-48 235zM219 848q0 -131 64 -241t174 -174t241 -64t241.5 64t174.5 174t64 241 t-64 241t-174.5 174t-241.5 64t-241 -64t-174 -174t-64 -241zM475 735v226q0 54 13.5 91.5t50.5 67.5q61 51 159 51q99 0 160 -51q37 -30 50.5 -67.5t13.5 -91.5v-19h-156v21q0 35 -14 51q-19 22 -54 22q-34 0 -53 -22q-14 -16 -14 -51v-230q0 -35 14 -51q20 -23 53 -23 q36 0 56 23q12 14 12 51v21h156v-19q0 -55 -13.5 -92.5t-50.5 -67.5q-61 -51 -160 -51q-98 0 -159 51q-37 30 -50.5 67.5t-13.5 92.5z" />
<glyph unicode="&#xab;" horiz-adv-x="917" d="M72 567l415 414v-209l-206 -205l206 -205v-208zM451 567l415 414v-209l-207 -205l207 -205v-208z" />
<glyph unicode="&#xac;" horiz-adv-x="1404" d="M289 668v125h835v-461h-163v336h-672z" />
<glyph unicode="&#xad;" horiz-adv-x="643" d="M92 535v184h459v-184h-459z" />
<glyph unicode="&#xae;" horiz-adv-x="1396" d="M92 848q0 123 48 235t129.5 193.5t193.5 129.5t235 48t235.5 -48t194 -129.5t129.5 -193.5t48 -235t-48 -235t-129.5 -193.5t-194 -129.5t-235.5 -48t-235 48t-193.5 129.5t-129.5 193.5t-48 235zM219 848q0 -131 64 -241t174 -174t241 -64t241.5 64t174.5 174t64 241 t-64 241t-174.5 174t-241.5 64t-241 -64t-174 -174t-64 -241zM494 524v647h225q104 0 158 -41q63 -47 63 -145v-39q0 -76 -39 -117q-14 -19 -47 -32l115 -273h-168l-92 240h-60v-240h-155zM649 897h56q43 0 61 18t18 50q0 39 -22 55q-21 16 -57 16h-56v-139z" />
<glyph unicode="&#xb0;" horiz-adv-x="675" d="M51 1112q0 126 86 207q83 80 201 80q127 0 209 -88q78 -81 78 -199q0 -115 -70 -192q-37 -42 -94.5 -68.5t-122.5 -26.5q-116 0 -195 72q-41 37 -66.5 94t-25.5 121zM174 1112q0 -68 48 -116t116 -48t116 48t48 116t-48 116t-116 48t-116 -48t-48 -116z" />
<glyph unicode="&#xb1;" horiz-adv-x="1052" d="M123 0v164h807v-164h-807zM123 514v164h321v321h164v-321h322v-164h-322v-260h-164v260h-321z" />
<glyph unicode="&#xb4;" horiz-adv-x="493" d="M143 1184l90 250h220l-193 -250h-117z" />
<glyph unicode="&#xb6;" horiz-adv-x="1003" d="M76 887v246q0 149 96 225q40 35 107 55.5t133 20.5h561v-144h-125v-1708h-148v1708h-151v-1708h-148v1006h-24q-137 0 -219 80t-82 219z" />
<glyph unicode="&#xb7;" horiz-adv-x="696" d="M205 717q0 60 41.5 101.5t101.5 41.5t102 -41.5t42 -101.5t-42 -102t-102 -42t-101.5 42t-41.5 102z" />
<glyph unicode="&#xbb;" horiz-adv-x="917" d="M51 154v208l207 205l-207 205v209l416 -414zM430 154v208l207 205l-207 205v209l416 -414z" />
<glyph unicode="&#x131;" horiz-adv-x="425" d="M111 0v1016h204v-1016h-204z" />
<glyph unicode="&#x2d9;" horiz-adv-x="425" d="M111 1204v201h204v-201h-204z" />
<glyph unicode="&#x3bc;" horiz-adv-x="860" d="M111 -418v1434h204v-719q0 -57 31 -86q27 -27 70 -27q57 0 94 37q35 35 35 98v697h205v-1016h-205v102q-48 -118 -150 -118q-43 0 -80 26v-428h-204z" />
<glyph unicode="&#x401;" horiz-adv-x="808" d="M123 0v1434h608v-195h-403v-422h356v-184h-356v-438h409v-195h-614zM166 1565v217h209v-217h-209zM485 1565v217h209v-217h-209z" />
<glyph unicode="&#x402;" horiz-adv-x="1042" d="M41 1241v193h713v-193h-262v-373h118q176 0 260 -88q80 -85 80 -254v-100q0 -76 -2 -117.5t-14.5 -100.5t-38.5 -97q-75 -111 -229 -111h-62v205h43q28 0 48 15t28 32q5 8 8.5 17.5t5.5 17.5t4 20t2.5 19t1 20t0.5 18.5v18.5v16v82q0 36 -1 55.5t-11 55t-31 55.5 q-19 18 -50.5 27t-49.5 9.5t-57 0.5h-53v-684h-205v1241h-246z" />
<glyph unicode="&#x403;" horiz-adv-x="735" d="M123 0v1434h622v-195h-417v-1239h-205zM272 1565l103 215h248l-217 -215h-134z" />
<glyph unicode="&#x404;" horiz-adv-x="847" d="M102 342v813q0 79 30.5 138.5t81.5 93.5t111 50.5t126 16.5q89 0 163.5 -31.5t123 -101t48.5 -166.5v-129h-204v86q0 63 -35.5 102t-97.5 39q-61 0 -101.5 -31.5t-40.5 -84.5v-297h254v-185h-254v-321v-7q0 -22 0.5 -35.5t7.5 -37t20 -37.5t40.5 -25.5t66.5 -11.5 q140 0 140 135v82h204v-133q0 -40 -9.5 -78t-33.5 -76t-60.5 -66.5t-95 -46t-132.5 -17.5q-70 0 -126 14t-92 35t-62.5 54t-40 62.5t-21.5 69.5t-9.5 66.5t-1.5 60.5z" />
<glyph unicode="&#x405;" horiz-adv-x="901" d="M92 346v47h205v-39q0 -85 33 -127q38 -47 112 -47q88 0 129 51q33 42 33 142v53q0 102 -33 147q-29 40 -98 64l-149 53q-67 25 -114 60t-75 100q-31 71 -31 209v41q0 163 107 266q91 88 248 88q156 0 249 -97.5t93 -273.5v-47h-205v39q0 88 -35 131q-37 47 -108 47 q-62 0 -101 -39q-43 -45 -43 -145q0 -101 33 -149q24 -37 94 -64l125 -45q33 -13 49 -19.5t45.5 -22t51.5 -35.5t41 -46q38 -52 49.5 -109.5t11.5 -138.5v-49q0 -106 -26 -188t-72 -129q-41 -43 -111 -68.5t-156 -25.5q-102 0 -174.5 35t-111.5 89q-66 88 -66 242z" />
<glyph unicode="&#x406;" horiz-adv-x="450" d="M123 0v1434h205v-1434h-205z" />
<glyph unicode="&#x407;" horiz-adv-x="450" d="M-33 1565v204h195v-204h-195zM123 0v1434h205v-1434h-205zM289 1565v204h194v-204h-194z" />
<glyph unicode="&#x408;" horiz-adv-x="739" d="M-20 102l157 134q40 -56 115 -56q81 0 121 53q39 51 39 146v1055h204v-1028q0 -49 -2.5 -83t-11.5 -82.5t-31.5 -90.5t-58.5 -78q-55 -55 -119.5 -73.5t-142.5 -18.5q-168 0 -270 122z" />
<glyph unicode="&#x409;" horiz-adv-x="1343" d="M-10 0v195h22q46 0 80 20q52 31 72 94q34 94 49.5 317.5t17.5 422.5l7 385h561v-580h100q48 0 68.5 -1t66 -7.5t82 -25t68.5 -48.5q40 -37 61.5 -88t24 -79.5t2.5 -69.5v-168q0 -143 -60 -232q-92 -135 -307 -135h-311v1249h-164l-6 -200q-1 -27 -2.5 -125.5t-5 -178.5 t-10.5 -184q-11 -163 -35.5 -268t-75.5 -174q-25 -34 -55 -58t-54 -35.5t-56.5 -17.5t-49 -7t-43.5 -1h-47zM799 184h92q176 0 176 213v78q0 57 -11.5 93.5t-43.5 64.5q-45 37 -109 37h-104v-486z" />
<glyph unicode="&#x40a;" horiz-adv-x="1363" d="M123 0v1434h205v-598h276v598h205v-598h100q48 0 68.5 -1t66 -7.5t82 -25t68.5 -48.5q40 -37 61.5 -88.5t24 -80t2.5 -69.5v-149q0 -44 -3 -74.5t-16.5 -75t-39.5 -82.5q-92 -135 -308 -135h-311v651h-276v-651h-205zM809 184h92q92 0 139 64q37 51 37 149v60 q0 57 -11.5 93t-43.5 64q-45 37 -109 37h-104v-467z" />
<glyph unicode="&#x40b;" horiz-adv-x="1062" d="M41 1241v193h713v-193h-262v-373h118q176 0 260 -88q80 -85 80 -254v-526h-205v481q0 36 -1 55.5t-11 55t-31 55.5q-19 18 -50.5 27t-49.5 9.5t-57 0.5h-53v-684h-205v1241h-246z" />
<glyph unicode="&#x40c;" horiz-adv-x="946" d="M123 0v1434h205v-615h116q48 0 76 43q19 26 28 66.5t17 122.5l15 129q8 75 24.5 128t57.5 89q61 53 190 53h31v-184h-27q-26 0 -53 -23q-17 -14 -25 -46.5t-16 -104.5l-14 -138q-12 -108 -29 -153q-17 -40 -45 -60l221 -741h-223l-178 635h-166v-635h-205zM338 1565 l102 215h248l-217 -215h-133z" />
<glyph unicode="&#x40e;" horiz-adv-x="782" d="M6 1434h234l196 -703h6q22 145 54 293l90 410h211l-244 -979q-6 -23 -16.5 -68.5t-17.5 -72t-18.5 -66t-23.5 -66t-28.5 -55.5t-37.5 -51t-46 -37q-64 -39 -177 -39h-73v195h51q63 0 94 34q12 12 24 38.5t17 47.5l27 121zM172 1755v25h164v-19q0 -38 24 -57 q20 -18 62 -18q41 0 61 18q25 20 25 57v19h164v-25q0 -106 -62 -164q-60 -57 -188 -57q-129 0 -189 57q-61 57 -61 164z" />
<glyph unicode="&#x40f;" horiz-adv-x="819" d="M123 0v1434h205v-1250h266v1250h205v-1434h-236v-242h-205v242h-235z" />
<glyph unicode="&#x410;" horiz-adv-x="841" d="M20 0l314 1434h180l313 -1434h-204l-68 307h-262l-68 -307h-205zM313 489h217l-110 545z" />
<glyph unicode="&#x411;" horiz-adv-x="882" d="M123 0v1434h622v-195h-417v-385h100q48 0 68.5 -1t66 -7.5t82 -25t68.5 -48.5q40 -37 61.5 -88t24 -79.5t2.5 -69.5v-168q0 -143 -60 -232q-92 -135 -307 -135h-311zM328 184h92q92 0 139 64q37 51 37 149v78q0 57 -11.5 93.5t-43.5 64.5q-45 37 -109 37h-104v-486z" />
<glyph unicode="&#x412;" horiz-adv-x="903" d="M123 0v1434h276q171 0 271 -70q45 -32 74 -76t40 -95t14 -82.5t3 -76.5q0 -78 -12.5 -128.5t-49.5 -94.5q-32 -39 -77 -66q62 -28 98 -90q28 -49 34.5 -83.5t6.5 -96.5v-108q0 -207 -123 -299q-87 -68 -244 -68h-311zM328 184h92q92 0 139 64q37 50 37 145v68 q0 57 -11.5 93t-43.5 64q-45 37 -109 37h-104v-471zM328 840h98q89 0 131 53q39 45 39 123v88q0 56 -39 98q-47 47 -133 47h-96v-409z" />
<glyph unicode="&#x413;" horiz-adv-x="735" d="M123 0v1434h622v-195h-417v-1239h-205z" />
<glyph unicode="&#x414;" horiz-adv-x="917" d="M-10 184h96q72 160 104 342q43 242 43 803v105h558v-1250h116v-405h-194v221h-529v-221h-194v405zM295 174h291v1075h-160v-112q0 -426 -45 -674q-25 -155 -86 -289z" />
<glyph unicode="&#x415;" horiz-adv-x="808" d="M123 0v1434h608v-195h-403v-422h356v-184h-356v-438h409v-195h-614z" />
<glyph unicode="&#x416;" horiz-adv-x="1339" d="M47 1266v184h37q129 0 190 -53q41 -36 57.5 -89t24.5 -128l15 -129q8 -82 17 -122.5t28 -66.5q28 -43 76 -43h75v615h205v-615h76q48 0 76 43q19 26 28 66.5t17 122.5l14 129q8 75 24.5 128t57.5 89q61 53 190 53h37v-184h-32q-27 0 -54 -23q-17 -14 -25 -46.5 t-16 -104.5l-14 -138q-12 -108 -29 -153q-17 -40 -45 -60l213 -741h-223l-174 643h-121v-643h-205v643h-121l-174 -643h-223l213 741q-28 20 -45 60q-17 45 -29 153l-14 138q-8 72 -16 104.5t-25 46.5q-27 23 -53 23h-33z" />
<glyph unicode="&#x417;" horiz-adv-x="847" d="M61 264v133h205v-82q0 -24 9 -52.5t24 -45.5q34 -37 107 -37q67 0 98 31q17 16 26 39t10 38.5t1 45.5v127q0 119 -56 164q-35 30 -108 30h-62v185h56q85 0 131 49q39 43 39 127v92q0 80 -41 115q-38 30 -101 30q-58 0 -94 -36q-39 -37 -39 -105v-86h-205v129 q0 145 109 229q89 70 227 70q149 0 236 -65q112 -82 112 -234v-121q0 -72 -11.5 -124.5t-49.5 -98.5q-39 -42 -82 -66q75 -39 103 -90q40 -66 40 -184v-168q0 -73 -18 -131.5t-72 -108.5q-90 -83 -262 -83q-159 0 -243 77q-14 12 -30.5 31.5t-37.5 70t-21 105.5z" />
<glyph unicode="&#x418;" horiz-adv-x="993" d="M123 0v1434h205v-881l338 717v164h204v-1434h-204v881l-338 -717v-164h-205z" />
<glyph unicode="&#x419;" horiz-adv-x="993" d="M123 0v1434h205v-881l338 717v164h204v-1434h-204v881l-338 -717v-164h-205zM248 1753v25h164v-19q0 -38 24 -57q21 -19 62 -19q40 0 61 19q25 20 25 57v19h164v-25q0 -106 -62 -164q-60 -57 -188 -57q-129 0 -189 57q-61 57 -61 164z" />
<glyph unicode="&#x41a;" horiz-adv-x="946" d="M123 0v1434h205v-615h116q48 0 76 43q19 26 28 66.5t17 122.5l15 129q8 75 24.5 128t57.5 89q61 53 190 53h31v-184h-27q-26 0 -53 -23q-17 -14 -25 -46.5t-16 -104.5l-14 -138q-12 -108 -29 -153q-17 -40 -45 -60l221 -741h-223l-178 635h-166v-635h-205z" />
<glyph unicode="&#x41b;" horiz-adv-x="921" d="M-10 0v195h22q46 0 80 20q54 32 72 94q26 81 41 353q12 232 14 387l6 385h574v-1434h-205v1249h-164l-6 -200q-13 -412 -18 -480q-11 -169 -31 -266q-25 -125 -99 -207q-52 -57 -109 -76.5t-130 -19.5h-47z" />
<glyph unicode="&#x41c;" horiz-adv-x="1214" d="M123 0v1434h205l282 -791h8l269 791h205v-1434h-205v897h-10l-215 -647h-109l-215 647h-10v-897h-205z" />
<glyph unicode="&#x41d;" horiz-adv-x="931" d="M123 0v1434h205v-617h276v617h205v-1434h-205v633h-276v-633h-205z" />
<glyph unicode="&#x41e;" horiz-adv-x="921" d="M102 377v680q0 65 5.5 109t30.5 98.5t71 97.5q98 92 252 92t252 -92q66 -62 86 -133t20 -172v-680q0 -101 -20 -172t-86 -133q-98 -92 -252 -92t-252 92q-46 43 -71 97.5t-30.5 98.5t-5.5 109zM307 346q0 -82 43 -125q41 -41 111 -41q69 0 110 41q43 43 43 125v741 q0 82 -43 125q-41 41 -110 41q-70 0 -111 -41q-43 -43 -43 -125v-741z" />
<glyph unicode="&#x41f;" horiz-adv-x="921" d="M123 0v1434h676v-1434h-205v1249h-266v-1249h-205z" />
<glyph unicode="&#x420;" horiz-adv-x="880" d="M123 0v1434h305q57 0 96 -4t94 -26.5t97 -64.5q63 -65 83.5 -145.5t20.5 -181.5v-41q0 -190 -88 -291q-99 -113 -282 -113h-121v-567h-205zM328 752h110q89 0 137 53q7 8 12.5 15.5t9.5 16.5t7 15t5 17t3 15.5t1.5 17.5t0.5 16v17.5v16.5v95q0 28 -1 41.5t-5 40 t-16.5 46.5t-32.5 37q-22 18 -53 26.5t-48.5 9.5t-58.5 1h-71v-497z" />
<glyph unicode="&#x421;" horiz-adv-x="858" d="M102 346v744q0 86 21.5 156t83.5 124q45 41 108.5 62.5t124.5 21.5q67 0 135.5 -24.5t112.5 -67.5q41 -41 66.5 -103.5t25.5 -134.5v-98h-198v82q0 54 -27 94q-36 51 -106 51q-69 0 -107 -47q-35 -43 -35 -141v-707q0 -31 1 -47t7 -39.5t19 -40.5q36 -51 104 -51 q78 0 115 49q29 41 29 117v51h204v-59q0 -171 -86 -262q-88 -96 -268 -96q-166 0 -258 108q-26 30 -42 63.5t-22 72.5t-7 60t-1 62z" />
<glyph unicode="&#x422;" horiz-adv-x="724" d="M6 1239v195h713v-195h-254v-1239h-205v1239h-254z" />
<glyph unicode="&#x423;" horiz-adv-x="782" d="M6 1434h234l196 -703h6q22 145 54 293l90 410h211l-244 -979q-6 -23 -16.5 -68.5t-17.5 -72t-18.5 -66t-23.5 -66t-28.5 -55.5t-37.5 -51t-46 -37q-64 -39 -177 -39h-73v195h51q63 0 94 34q12 12 24 38.5t17 47.5l27 121z" />
<glyph unicode="&#x424;" horiz-adv-x="1249" d="M82 600v248q0 101 20.5 182t83.5 146q32 32 68.5 52.5t77.5 28.5t70 10.5t71 2.5h49v184h205v-184h49q42 0 71 -2.5t70 -10.5t77.5 -28.5t68.5 -52.5q63 -65 83.5 -146t20.5 -182v-248q0 -192 -88 -291q-99 -114 -282 -114h-70v-195h-205v195h-69q-184 0 -283 114 q-88 99 -88 291zM287 548q0 -3 0.5 -16t1.5 -17t3 -15.5t5 -17.5t7 -15t9.5 -17t12.5 -16q21 -23 47.5 -35t44.5 -14t45 -2h59v700h-20h-11q-35 0 -54 -1t-47 -9.5t-48 -25.5t-32.5 -37t-16.5 -47t-5 -40.5t-1 -41.5v-299v-16.5v-17.5zM727 383h59q27 0 45 2t45 14t48 35 q7 8 12.5 16t9.5 17t7 15t5 17.5t3 15.5t1.5 17t0.5 16v17.5v16.5v299q0 36 -1.5 56.5t-15 54t-39.5 55.5q-22 18 -53.5 26.5t-47 9t-58.5 0.5h-21v-700z" />
<glyph unicode="&#x425;" horiz-adv-x="894" d="M31 0l301 758l-269 676h218l163 -451l166 451h226l-277 -676l305 -758h-217l-203 518l-188 -518h-225z" />
<glyph unicode="&#x426;" horiz-adv-x="925" d="M123 0v1434h205v-1250h256v1250h204v-1250h127v-405h-194v221h-598z" />
<glyph unicode="&#x427;" horiz-adv-x="878" d="M92 907v527h205v-482q0 -123 39 -166q34 -36 100 -36q68 0 115 28v656h205v-1434h-205v594q-78 -29 -158 -29q-155 0 -229 86q-72 81 -72 256z" />
<glyph unicode="&#x428;" horiz-adv-x="1310" d="M123 0v1434h205v-1250h225v1250h205v-1250h225v1250h205v-1434h-1065z" />
<glyph unicode="&#x429;" horiz-adv-x="1325" d="M123 0v1434h205v-1250h225v1250h205v-1250h225v1250h205v-1250h127v-405h-195v221h-997z" />
<glyph unicode="&#x42a;" horiz-adv-x="1040" d="M20 1239v195h465v-580h101q48 0 68.5 -1t65.5 -7.5t81.5 -25t68.5 -48.5q40 -37 61.5 -88t24 -79.5t2.5 -69.5v-168q0 -44 -3 -74.5t-16.5 -75t-39.5 -82.5q-92 -135 -307 -135h-311v1239h-261zM485 184h93q176 0 176 213v78q0 56 -12 93t-44 65q-45 37 -108 37h-105 v-486z" />
<glyph unicode="&#x42b;" horiz-adv-x="1294" d="M123 0v1434h205v-580h100q48 0 68.5 -1t66 -7.5t82 -25t68.5 -48.5q40 -37 61.5 -88t24 -79.5t2.5 -69.5v-168q0 -143 -60 -232q-92 -135 -307 -135h-311zM328 184h92q176 0 176 213v78q0 57 -11.5 93.5t-43.5 64.5q-45 37 -109 37h-104v-486zM967 0v1434h204v-1434h-204 z" />
<glyph unicode="&#x42c;" horiz-adv-x="882" d="M123 0v1434h205v-580h100q48 0 68.5 -1t66 -7.5t82 -25t68.5 -48.5q40 -37 61.5 -88t24 -79.5t2.5 -69.5v-168q0 -143 -60 -232q-92 -135 -307 -135h-311zM328 184h92q176 0 176 213v78q0 57 -11.5 93.5t-43.5 64.5q-45 37 -109 37h-104v-486z" />
<glyph unicode="&#x42d;" horiz-adv-x="847" d="M61 264v133h205v-82q0 -135 140 -135q39 0 66.5 11.5t40.5 25t20 38t7.5 37.5t0.5 35v7v321h-254v185h254v297q0 53 -40.5 84.5t-101.5 31.5q-62 0 -97.5 -39t-35.5 -102v-86h-205v129q0 97 49 166.5t123.5 101t163.5 31.5q66 0 125.5 -16.5t111 -50.5t81.5 -93.5 t30 -138.5v-813q0 -34 -1.5 -60.5t-9 -66.5t-21 -69.5t-40 -62.5t-62.5 -54t-92 -35t-126 -14q-74 0 -132.5 17.5t-95 46t-61 66.5t-34 76t-9.5 78z" />
<glyph unicode="&#x42e;" horiz-adv-x="1316" d="M123 0v1434h205v-617h170v240q0 101 20 172t86 133q98 92 252 92t252 -92q66 -62 86 -133t20 -172v-680q0 -101 -20 -172t-86 -133q-98 -92 -252 -92t-252 92q-66 62 -86 133t-20 172v256h-170v-633h-205zM702 346q0 -82 43 -125q41 -41 111 -41t111 41q43 43 43 125v741 q0 82 -43 125q-41 41 -111 41t-111 -41q-43 -43 -43 -125v-741z" />
<glyph unicode="&#x42f;" horiz-adv-x="909" d="M51 0l213 666q-60 25 -98 77q-28 39 -47 100.5t-19 119.5v108q0 158 76 250q32 40 74 65t93.5 34.5t83.5 11.5t87 2h14h258v-1434h-204v618h-127l-185 -618h-219zM305 979q0 -48 7.5 -75t35.5 -54q50 -47 127 -47h107v446h-97h-14h-15.5t-14.5 -0.5t-16 -1.5t-14.5 -2.5 t-15.5 -4.5l-14 -7t-15 -9t-14 -12q-47 -47 -47 -131v-102z" />
<glyph unicode="&#x430;" horiz-adv-x="829" d="M92 270q0 178 64 254q75 88 241 88q54 0 117 -6v107q0 57 -27 86q-28 32 -81 32q-51 0 -82 -36q-24 -28 -27 -66h-195q-1 65 22.5 123t61.5 96q39 39 99.5 61.5t130.5 22.5q134 0 219 -82q84 -84 84 -239v-711h-205v100h-4q-25 -42 -70 -77q-49 -39 -118 -39 q-98 0 -156 53q-74 69 -74 233zM297 299q0 -50 20 -84q28 -47 82 -47q49 0 82 33.5t33 97.5v143q-44 7 -72 7q-78 0 -114 -43q-31 -36 -31 -107z" />
<glyph unicode="&#x431;" horiz-adv-x="811" d="M96 328v516q0 201 64 301q22 34 54 61t56 39.5t62 28.5q63 26 94 37q45 16 66 39q18 18 18 51v33h188v-62q0 -76 -18 -115q-17 -38 -43.5 -57.5t-65.5 -32.5q-46 -16 -69 -22q-46 -12 -90 -27q-74 -27 -105 -69q-37 -48 -37 -123v-35h6q25 56 81.5 90.5t125.5 34.5 q99 0 162 -60q70 -70 70 -172v-456q0 -37 -3 -66.5t-12 -68.5t-31 -74.5t-55 -63.5q-83 -71 -208 -71q-126 0 -209 71q-33 28 -55 63.5t-31 74.5t-12 68.5t-3 66.5zM301 315q0 -68 31 -102q29 -29 74 -29q44 0 73 29q31 34 31 102v385q0 69 -31 103q-28 28 -73 28 q-46 0 -74 -28q-31 -34 -31 -103v-385z" />
<glyph unicode="&#x432;" horiz-adv-x="817" d="M111 0v1016h338q126 0 200 -74q32 -34 50 -83t18 -93v-49q0 -94 -49 -150q-29 -34 -80 -51q56 -18 94 -67q43 -58 43 -146v-47q0 -117 -82 -190q-45 -40 -98 -53t-123 -13h-311zM315 184h95q60 0 88 35q22 25 22 72v37q0 47 -24 75q-29 31 -86 31h-95v-250zM315 598h91 q28 0 46 6t35 27q25 29 25 82v20q0 47 -25 72q-24 26 -81 26h-91v-233z" />
<glyph unicode="&#x433;" horiz-adv-x="626" d="M111 0v1016h510v-201h-306v-815h-204z" />
<glyph unicode="&#x434;" horiz-adv-x="847" d="M-4 184h106q60 127 82 287q25 183 25 418v127h522v-832h117v-389h-195v205h-463v-205h-194v389zM301 174h225v657h-131v-73q0 -196 -24 -344q-19 -118 -70 -240z" />
<glyph unicode="&#x435;" horiz-adv-x="813" d="M102 328v389q0 159 101 246q79 69 203 69q128 0 212 -74q103 -89 103 -260v-266h-414v-131q0 -61 27 -88q26 -29 78 -29q54 0 82 43q18 30 18 70h205v-8q0 -165 -115 -248q-79 -57 -190 -57q-70 0 -133 26.5t-103 71.5q-74 82 -74 246zM307 590h209v133q0 51 -29 80 q-28 28 -75 28q-53 0 -80 -34q-25 -31 -25 -82v-125z" />
<glyph unicode="&#x436;" horiz-adv-x="1179" d="M41 0l192 520q-30 15 -45 51q-4 10 -7 19.5t-5 22.5t-3.5 21t-3.5 26t-3 26l-10 76q-7 49 -23 69q-21 21 -53 21h-31v174h51q59 0 103 -14t73 -54q35 -47 48 -131l12 -73q12 -70 26 -99q14 -31 31.5 -42t55.5 -11h38v414h205v-414h39q38 0 55 11t31 42q15 32 27 99l12 73 q13 85 47 131q29 40 73 54t103 14h51v-174h-30q-32 0 -53 -21q-16 -20 -23 -69l-10 -76q-11 -87 -23 -115q-15 -36 -45 -51l193 -520h-211l-148 438h-88v-438h-205v438h-88l-147 -438h-211z" />
<glyph unicode="&#x437;" horiz-adv-x="772" d="M61 264v39h197v-20q0 -38 23 -64q30 -35 81 -35q63 0 89 35q24 31 24 86v19q0 49 -31 75q-30 27 -77 27h-72v176h65q53 0 82 33q25 29 25 76v10q0 44 -25 76q-27 34 -75 34q-54 0 -82 -32q-27 -29 -27 -76v-14h-197v20q0 133 78 215q85 88 236 88q127 0 211 -76 q86 -82 86 -211v-28q0 -75 -35 -133q-33 -47 -80 -68q55 -21 84 -67q39 -55 39 -146v-27q0 -56 -22 -111.5t-58 -92.5q-40 -41 -102.5 -64.5t-132.5 -23.5q-57 0 -118 20t-100 57q-37 34 -61.5 88.5t-24.5 114.5z" />
<glyph unicode="&#x438;" horiz-adv-x="882" d="M111 0v1016h204v-567l252 442v125h205v-1016h-205v567l-252 -442v-125h-204z" />
<glyph unicode="&#x439;" horiz-adv-x="882" d="M111 0v1016h204v-567l252 442v125h205v-1016h-205v567l-252 -442v-125h-204zM207 1395v26h151v-30q0 -23 9 -45q15 -41 73 -41q32 0 50 12.5t24 28.5q8 20 8 45v30h152v-26q0 -116 -62 -178q-58 -58 -172 -58t-172 58q-61 61 -61 178z" />
<glyph unicode="&#x43a;" horiz-adv-x="825" d="M111 0v1016h204v-410h66q34 0 53 10t33 39q19 38 27 99l12 73q13 85 47 131q29 40 73 54t103 14h47v-174h-26q-33 0 -54 -21q-15 -18 -22 -69l-10 -76q-11 -89 -23 -115q-14 -32 -41 -51l184 -520h-206l-148 434h-115v-434h-204z" />
<glyph unicode="&#x43b;" horiz-adv-x="833" d="M0 0v172h25q61 0 104 61q19 27 29.5 79.5t19.5 166.5q9 103 17 336l4 201h524v-1016h-205v831h-131l-2 -65q-8 -289 -33 -440q-31 -189 -116 -263q-77 -63 -189 -63h-47z" />
<glyph unicode="&#x43c;" horiz-adv-x="1036" d="M111 0v1016h188l217 -567h4l217 567h189v-1016h-193v578l-172 -433h-86l-172 433v-578h-192z" />
<glyph unicode="&#x43d;" d="M111 0v1016h204v-410h209v410h205v-1016h-205v422h-209v-422h-204z" />
<glyph unicode="&#x43e;" horiz-adv-x="802" d="M92 328v360q0 37 3 66.5t12 68.5t31 74.5t55 63.5q83 71 208 71q126 0 209 -71q33 -28 55 -63.5t31 -74.5t12 -68.5t3 -66.5v-360q0 -37 -3 -66.5t-12 -68.5t-31 -74.5t-55 -63.5q-83 -71 -209 -71q-125 0 -208 71q-33 28 -55 63.5t-31 74.5t-12 68.5t-3 66.5zM297 315 q0 -68 31 -102q29 -29 73 -29q45 0 74 29q31 34 31 102v385q0 69 -31 103q-28 28 -74 28q-45 0 -73 -28q-31 -34 -31 -103v-385z" />
<glyph unicode="&#x43f;" horiz-adv-x="827" d="M111 0v1016h606v-1016h-205v831h-197v-831h-204z" />
<glyph unicode="&#x440;" d="M111 -418v1434h204v-90h2q24 40 70 71q52 35 125 35q67 0 109 -25.5t61 -52.5q47 -64 47 -211v-528q0 -111 -59 -172q-56 -59 -152 -59q-72 0 -135 39q-41 24 -68 59v-500h-204zM315 319q0 -67 33 -102q33 -33 78 -33q44 0 72 31q26 28 26 82v412q0 24 -0.5 34.5t-6.5 27 t-19 30.5q-27 30 -72 30q-46 0 -78 -32q-33 -35 -33 -103v-377z" />
<glyph unicode="&#x441;" horiz-adv-x="786" d="M102 342v350q0 50 5 89t27.5 89t62.5 86q84 76 211 76q153 0 235 -88q40 -41 61 -103.5t21 -125.5v-6h-205v14q0 42 -22 70q-27 38 -82 38q-51 0 -80 -34t-29 -99v-393q0 -54 25 -86q29 -35 84 -35q54 0 82 35q22 28 22 68v16h205v-18q0 -144 -102 -232q-84 -69 -205 -69 q-70 0 -132.5 23t-103.5 65q-24 24 -40 53t-23.5 51.5t-11.5 58t-4.5 52.5t-0.5 55z" />
<glyph unicode="&#x442;" horiz-adv-x="655" d="M20 831v185h615v-185h-205v-831h-205v831h-205z" />
<glyph unicode="&#x443;" horiz-adv-x="761" d="M20 1016h222l166 -631h8l127 631h205l-279 -1153q0 -2 -4.5 -20.5t-6 -24t-6.5 -24t-8 -27l-9 -25.5t-12 -27.5t-13.5 -24t-16 -24t-18.5 -20.5q-66 -64 -205 -64h-53l-4 191h39q64 0 96 43q19 24 37 98l32 133z" />
<glyph unicode="&#x444;" horiz-adv-x="1134" d="M92 215v528q0 47 2 72.5t14.5 65t38.5 73.5q61 78 164 78q49 0 95 -26q36 -22 59 -56v484h205v-484q23 34 59 56q46 26 94 26q103 0 164 -78q26 -34 38.5 -73.5t14.5 -65t2 -72.5v-528q0 -114 -67 -178q-57 -53 -141 -53q-45 0 -91.5 21.5t-72.5 60.5v-484h-205v484 q-19 -29 -53 -50q-51 -32 -111 -32q-86 0 -141 53q-68 65 -68 178zM283 281q0 -58 26 -86q24 -27 64 -27q43 0 71 35q29 35 29 100v410q0 71 -29 104q-26 31 -67 31q-42 0 -68 -29q-26 -28 -26 -94v-444zM662 303q0 -66 28 -100q28 -35 72 -35q39 0 63 27q27 29 27 86v444 q0 65 -27 94q-26 29 -67 29q-42 0 -68 -31q-28 -32 -28 -104v-410z" />
<glyph unicode="&#x445;" horiz-adv-x="733" d="M14 0l250 518l-237 498h215l127 -289l127 289h215l-242 -498l254 -518h-215l-139 311l-140 -311h-215z" />
<glyph unicode="&#x446;" horiz-adv-x="876" d="M111 0v1016h204v-832h209v832h205v-832h127v-389h-194v205h-551z" />
<glyph unicode="&#x447;" horiz-adv-x="780" d="M61 602v414h205v-363q0 -48 25 -73t74 -25q56 0 100 23v438h205v-1016h-205v410q-80 -39 -178 -39q-111 0 -168 57q-26 25 -39.5 58t-16 57t-2.5 59z" />
<glyph unicode="&#x448;" horiz-adv-x="1224" d="M111 0v1016h204v-832h195v832h205v-832h194v832h205v-1016h-1003z" />
<glyph unicode="&#x449;" horiz-adv-x="1241" d="M111 0v1016h204v-832h195v832h205v-832h194v832h205v-832h127v-389h-194v205h-936z" />
<glyph unicode="&#x44a;" horiz-adv-x="890" d="M-10 815v201h420v-377h106q70 0 123 -13t98 -53q82 -73 82 -190v-115q0 -129 -82 -202q-46 -40 -99 -53t-122 -13h-311v815h-215zM410 184h94q60 0 88 35q22 25 22 72v57q0 48 -24 76q-29 31 -86 31h-94v-271z" />
<glyph unicode="&#x44b;" horiz-adv-x="1165" d="M111 0v1016h204v-377h107q70 0 123 -13t98 -53q82 -73 82 -190v-115q0 -129 -82 -202q-46 -40 -99 -53t-122 -13h-311zM315 184h95q60 0 88 35q22 25 22 72v57q0 48 -24 76q-29 31 -86 31h-95v-271zM850 0v1016h205v-1016h-205z" />
<glyph unicode="&#x44c;" horiz-adv-x="786" d="M111 0v1016h204v-377h107q70 0 123 -13t98 -53q82 -73 82 -190v-115q0 -129 -82 -202q-46 -40 -99 -53t-122 -13h-311zM315 184h95q60 0 88 35q22 25 22 72v57q0 48 -24 76q-29 31 -86 31h-95v-271z" />
<glyph unicode="&#x44d;" horiz-adv-x="776" d="M61 285v18h205v-16q0 -37 23 -68q28 -35 82 -35q55 0 84 35q24 31 24 86v117h-200v184h200v92q0 67 -28 99q-29 34 -80 34q-55 0 -82 -38q-23 -30 -23 -68v-16h-205v6q0 63 21 125.5t61 103.5q38 41 100.5 64.5t135.5 23.5q127 0 211 -76q40 -36 62 -86.5t27 -88.5t5 -89 v-350q0 -38 -0.5 -55t-4.5 -52.5t-11.5 -58t-23.5 -51.5t-40 -53q-41 -42 -103 -65t-132 -23q-121 0 -205 69q-103 89 -103 232z" />
<glyph unicode="&#x44e;" horiz-adv-x="1153" d="M111 0v1016h204v-410h127v82q0 37 3 66.5t12 68.5t31 74.5t55 63.5q83 71 209 71t209 -71q44 -37 67.5 -90.5t28 -92t4.5 -90.5v-360q0 -52 -4.5 -90.5t-28 -92t-67.5 -90.5q-83 -71 -209 -71t-209 71q-33 28 -55 63.5t-31 74.5t-12 68.5t-3 66.5v94h-127v-422h-204z M647 315q0 -68 31 -102q29 -29 74 -29q44 0 73 29q31 34 31 102v385q0 69 -31 103q-28 28 -73 28q-46 0 -74 -28q-31 -34 -31 -103v-385z" />
<glyph unicode="&#x44f;" horiz-adv-x="817" d="M51 0l166 449q-50 24 -80 65q-45 61 -45 160v86q0 117 82 190q45 40 98 53t123 13h312v-1016h-205v418h-90l-140 -418h-221zM297 688q0 -47 25 -76q28 -30 86 -30h94v270h-94q-49 0 -80 -31t-31 -88v-45z" />
<glyph unicode="&#x451;" horiz-adv-x="817" d="M102 328v389q0 159 101 246q79 69 203 69q128 0 212 -74q103 -89 103 -260v-266h-414v-131q0 -61 27 -88q26 -29 78 -29q54 0 82 43q18 30 18 70h205v-8q0 -165 -115 -248q-79 -57 -190 -57q-70 0 -133 26.5t-103 71.5q-74 82 -74 246zM147 1186v217h209v-217h-209z M307 590h209v133q0 51 -29 80q-28 28 -75 28q-53 0 -80 -34q-25 -31 -25 -82v-125zM467 1186v217h209v-217h-209z" />
<glyph unicode="&#x452;" horiz-adv-x="937" d="M111 1124v123h98v187h205v-187h213v-123h-213v-190q28 36 67 59q63 39 135 39q96 0 152 -59q59 -61 59 -172v-897q0 -58 -1 -84.5t-12.5 -70t-35.5 -75.5q-44 -57 -102 -74.5t-133 -17.5h-66v191h37q56 0 82 30q27 29 27 91v825q0 53 -27 82q-27 30 -72 30q-46 0 -78 -32 q-32 -34 -32 -103v-696h-205v1124h-98z" />
<glyph unicode="&#x453;" horiz-adv-x="626" d="M111 0v1016h510v-201h-306v-815h-204zM242 1184l90 250h219l-193 -250h-116z" />
<glyph unicode="&#x454;" horiz-adv-x="776" d="M92 342v350q0 51 5 89t27 88.5t62 86.5q84 76 211 76q73 0 135.5 -23.5t100.5 -64.5q40 -41 61 -103.5t21 -125.5v-6h-205v16q0 38 -23 68q-27 38 -81 38q-51 0 -80 -34t-29 -99v-92h201v-184h-201v-117q0 -54 25 -86q29 -35 84 -35q53 0 81 35q23 31 23 68v16h205v-18 q0 -143 -103 -232q-84 -69 -204 -69q-70 0 -132.5 23t-103.5 65q-24 24 -40 53t-23.5 51.5t-11.5 58t-4.5 52.5t-0.5 55z" />
<glyph unicode="&#x455;" horiz-adv-x="759" d="M61 285h205q0 -48 27 -78q30 -33 84 -33q52 0 80 35q26 28 26 82q0 44 -21 73.5t-81 55.5l-121 51q-84 35 -127 86q-55 65 -55 172q0 141 76 221q82 82 219 82q159 0 237 -82q37 -37 57.5 -93t20.5 -116h-201q-3 47 -30 74t-74 27q-41 0 -70.5 -26.5t-29.5 -76.5 q0 -36 20 -65q22 -31 80 -53l123 -52q78 -31 131 -98q51 -65 51 -186q0 -119 -65 -199q-83 -102 -248 -102q-156 0 -238 90q-37 40 -56.5 96.5t-19.5 114.5z" />
<glyph unicode="&#x456;" horiz-adv-x="425" d="M111 0v1016h204v-1016h-204zM111 1204v201h204v-201h-204z" />
<glyph unicode="&#x457;" horiz-adv-x="425" d="M-45 1204v195h195v-195h-195zM111 0v1016h204v-1016h-204zM276 1204v195h195v-195h-195z" />
<glyph unicode="&#x458;" horiz-adv-x="430" d="M-31 -217h37q55 0 82 31q27 29 27 90v1112h204v-1112v-25v-28t-1 -26.5t-2.5 -29.5l-4.5 -27t-8 -29t-11.5 -26.5t-16 -28.5t-21.5 -26q-24 -26 -51.5 -42.5t-59.5 -23.5t-53.5 -8.5t-54.5 -1.5h-66v201zM115 1204v201h204v-201h-204z" />
<glyph unicode="&#x459;" horiz-adv-x="1218" d="M25 0v184h24q30 0 57 17t44 41q22 31 34 83t19 154q7 75 16 336l4 201h525v-377h106q70 0 123 -13t98 -53q82 -73 82 -190v-115q0 -129 -82 -202q-46 -40 -99 -53t-122 -13h-311v831h-131l-2 -65q-9 -286 -29 -438q-25 -170 -107 -252q-34 -34 -81 -55t-95 -21h-73z M748 184h94q60 0 88 35q22 25 22 72v57q0 48 -24 76q-29 31 -86 31h-94v-271z" />
<glyph unicode="&#x45a;" horiz-adv-x="1210" d="M111 0v1016h204v-404h209v404h205v-404h107q70 0 123 -12.5t98 -52.5q82 -73 82 -191v-100q0 -117 -82 -190q-45 -40 -98 -53t-123 -13h-312v428h-209v-428h-204zM729 184h94q60 0 88 35q23 26 23 72v31q0 46 -25 75q-29 31 -86 31h-94v-244z" />
<glyph unicode="&#x45b;" horiz-adv-x="937" d="M111 1124v123h98v187h205v-187h213v-123h-213v-190q28 36 67 59q63 39 135 39q96 0 152 -59q59 -61 59 -172v-801h-204v719q0 53 -27 82q-27 30 -72 30q-46 0 -78 -32q-32 -34 -32 -103v-696h-205v1124h-98z" />
<glyph unicode="&#x45c;" horiz-adv-x="825" d="M111 0v1016h204v-410h66q34 0 53 10t33 39q19 38 27 99l12 73q13 85 47 131q29 40 73 54t103 14h47v-174h-26q-33 0 -54 -21q-15 -18 -22 -69l-10 -76q-11 -89 -23 -115q-14 -32 -41 -51l184 -520h-206l-148 434h-115v-434h-204zM309 1184l90 250h219l-192 -250h-117z " />
<glyph unicode="&#x45e;" horiz-adv-x="761" d="M20 1016h222l166 -631h8l127 631h205l-279 -1153q0 -2 -4.5 -20.5t-6 -24t-6.5 -24t-8 -27l-9 -25.5t-12 -27.5t-13.5 -24t-16 -24t-18.5 -20.5q-66 -64 -205 -64h-53l-4 191h39q64 0 96 43q19 24 37 98l32 133zM143 1395v26h152v-30q0 -25 8 -45q6 -16 24 -28.5 t50 -12.5t50 12.5t24 28.5q8 20 8 45v30h151v-26q0 -117 -61 -178q-58 -58 -172 -58t-172 58q-62 62 -62 178z" />
<glyph unicode="&#x45f;" d="M111 0v1016h204v-832h209v832h205v-1016h-209v-205h-201v205h-208z" />
<glyph unicode="&#x490;" horiz-adv-x="796" d="M123 0v1434h418v131h204v-326h-417v-1239h-205z" />
<glyph unicode="&#x491;" horiz-adv-x="651" d="M111 0v1016h305v98h205v-299h-306v-815h-204z" />
<glyph unicode="&#x2000;" horiz-adv-x="891" />
<glyph unicode="&#x2001;" horiz-adv-x="1782" />
<glyph unicode="&#x2002;" horiz-adv-x="891" />
<glyph unicode="&#x2003;" horiz-adv-x="1782" />
<glyph unicode="&#x2004;" horiz-adv-x="594" />
<glyph unicode="&#x2005;" horiz-adv-x="445" />
<glyph unicode="&#x2006;" horiz-adv-x="297" />
<glyph unicode="&#x2007;" horiz-adv-x="297" />
<glyph unicode="&#x2008;" horiz-adv-x="222" />
<glyph unicode="&#x2009;" horiz-adv-x="356" />
<glyph unicode="&#x200a;" horiz-adv-x="99" />
<glyph unicode="&#x2010;" horiz-adv-x="643" d="M92 535v184h459v-184h-459z" />
<glyph unicode="&#x2011;" horiz-adv-x="643" d="M92 535v184h459v-184h-459z" />
<glyph unicode="&#x2012;" horiz-adv-x="643" d="M92 535v184h459v-184h-459z" />
<glyph unicode="&#x2013;" horiz-adv-x="927" d="M123 537v163h682v-163h-682z" />
<glyph unicode="&#x2014;" horiz-adv-x="1312" d="M72 555v127h1169v-127h-1169z" />
<glyph unicode="&#x2018;" horiz-adv-x="389" d="M72 1067v215l215 225v-440h-215z" />
<glyph unicode="&#x2019;" horiz-adv-x="409" d="M72 993v441h215v-215z" />
<glyph unicode="&#x201a;" horiz-adv-x="389" d="M102 215h215v-215l-215 -225v440z" />
<glyph unicode="&#x201c;" horiz-adv-x="755" d="M72 1067v215l215 225v-440h-215zM438 1067v215l215 225v-440h-215z" />
<glyph unicode="&#x201d;" horiz-adv-x="776" d="M72 993v441h215v-215zM438 993v441h215v-215z" />
<glyph unicode="&#x201e;" horiz-adv-x="755" d="M102 215h215v-215l-215 -225v440zM469 215h215v-215l-215 -225v440z" />
<glyph unicode="&#x2020;" horiz-adv-x="778" d="M72 842v184h215v408h205v-408h215v-184h-215v-842h-205v842h-215z" />
<glyph unicode="&#x2021;" horiz-adv-x="778" d="M72 408v184h215v250h-215v184h215v408h205v-408h215v-184h-215v-250h215v-184h-215v-408h-205v408h-215z" />
<glyph unicode="&#x2022;" horiz-adv-x="901" d="M205 717q0 101 72.5 173.5t173.5 72.5t173 -72.5t72 -173.5t-72 -173.5t-173 -72.5t-173.5 72.5t-72.5 173.5z" />
<glyph unicode="&#x2026;" horiz-adv-x="1064" d="M72 0v205h204v-205h-204zM440 0v205h205v-205h-205zM788 0v205h205v-205h-205z" />
<glyph unicode="&#x202f;" horiz-adv-x="356" />
<glyph unicode="&#x2030;" horiz-adv-x="1820" d="M92 903v314q0 106 62 163q59 54 155 54q97 0 156 -54q61 -56 61 -163v-314q0 -108 -61 -164q-58 -53 -156 -53q-97 0 -155 53q-62 57 -62 164zM252 901q0 -33 12 -47q18 -18 45 -18t45 18q13 15 13 47v318q0 32 -13 47q-18 18 -45 18t-45 -18q-12 -14 -12 -47v-318z M264 0l590 1434h156l-590 -1434h-156zM756 217v313q0 108 61 164q59 54 156 54q96 0 155 -54q62 -57 62 -164v-313q0 -107 -62 -164q-58 -53 -155 -53q-98 0 -156 53q-61 56 -61 164zM915 215q0 -32 13 -47q18 -18 45 -18t45 18q12 14 12 47v317q0 34 -12 48q-18 18 -45 18 t-45 -18q-13 -15 -13 -48v-317zM1294 217v313q0 107 62 164q59 54 155 54q97 0 156 -54q62 -57 62 -164v-313q0 -107 -62 -164q-58 -53 -156 -53q-97 0 -155 53q-62 57 -62 164zM1454 215q0 -33 12 -47q18 -18 45 -18t45 18q13 15 13 47v317q0 33 -13 48q-18 18 -45 18 t-45 -18q-12 -14 -12 -48v-317z" />
<glyph unicode="&#x2039;" horiz-adv-x="538" d="M72 567l415 414v-209l-206 -205l206 -205v-208z" />
<glyph unicode="&#x203a;" horiz-adv-x="538" d="M51 154v208l207 205l-207 205v209l416 -414z" />
<glyph unicode="&#x205f;" horiz-adv-x="445" />
<glyph unicode="&#x20ac;" horiz-adv-x="856" d="M37 492l43 161h72q-5 45 -5 70q0 10 1.5 32.5t1.5 32.5h-113l43 162h84q50 504 395 504q78 0 138.5 -17t90.5 -40v-199q-70 66 -194 66q-203 0 -227 -314h364l-43 -162h-336q0 -10 -1 -32.5t-1 -32.5q0 -12 1 -36t1 -34h297l-45 -161h-237q23 -322 227 -322q124 0 194 66 v-203q-63 -51 -229 -51q-341 0 -393 510h-129z" />
<glyph unicode="&#x2116;" horiz-adv-x="1550" d="M123 0v1434h205l342 -902v902h204v-1434h-204l-342 901v-901h-205zM1024 233v150h434v-150h-434zM1024 717v313q0 108 61 164q58 53 156 53t156 -53q61 -56 61 -164v-313q0 -108 -61 -164q-58 -53 -156 -53t-156 53q-61 56 -61 164zM1184 715q0 -33 12 -47q19 -19 45 -19 t45 19q12 14 12 47v317q0 33 -12 47q-19 19 -45 19t-45 -19q-12 -14 -12 -47v-317z" />
<glyph unicode="&#x2122;" horiz-adv-x="1492" d="M72 1278v156h508v-156h-164v-559h-180v559h-164zM688 719v715h166l170 -398l170 398h166v-715h-170v375l-115 -277h-102l-115 277v-375h-170z" />
<glyph unicode="&#x25fc;" horiz-adv-x="1013" d="M0 0v1014h1014v-1014h-1014z" />
<glyph unicode="&#xf6c9;" horiz-adv-x="534" d="M143 1565l103 215h248l-218 -215h-133z" />
<glyph unicode="&#xf6cb;" horiz-adv-x="737" d="M111 1565v204h194v-204h-194zM432 1565v204h195v-204h-195z" />
<glyph unicode="&#xf6d1;" horiz-adv-x="745" d="M123 1753v25h164v-19q0 -38 24 -57q21 -19 62 -19q40 0 61 19q25 20 25 57v19h164v-25q0 -106 -62 -164q-60 -57 -188 -57q-129 0 -189 57q-61 57 -61 164z" />
<glyph unicode="&#xf6d4;" horiz-adv-x="688" d="M111 1395v26h151v-30q0 -25 8 -45q6 -16 24 -28.5t50 -12.5t50 12.5t24 28.5q8 20 8 45v30h152v-26q0 -116 -62 -178q-58 -58 -172 -58t-172 58q-61 61 -61 178z" />
<glyph horiz-adv-x="4" d="M-512 1184l90 250h219l-192 -250h-117z" />
<glyph horiz-adv-x="4" d="M-553 1565l102 215h248l-217 -215h-133z" />
</font>
</defs>
</svg>
